<?xml version="1.0" encoding="UTF-8" standalone="no"?>
<!DOCTYPE svg PUBLIC "-//W3C//DTD SVG 1.1//EN" "http://www.w3.org/Graphics/SVG/1.1/DTD/svg11.dtd">
<svg width="100%" height="100%" viewBox="0 0 48 48" version="1.1" xmlns="http://www.w3.org/2000/svg" xmlns:xlink="http://www.w3.org/1999/xlink" xml:space="preserve" xmlns:serif="http://www.serif.com/" style="fill-rule:evenodd;clip-rule:evenodd;stroke-linejoin:round;stroke-miterlimit:2;">
    <path d="M24,47C11.317,47 1,36.682 1,24C1,11.318 11.317,1 24,1C36.683,1 47,11.318 47,24C47,36.682 36.683,47 24,47Z" style="fill:rgb(239,211,88);fill-rule:nonzero;"/>
    <g>
        <path d="M29,19C29,19.286 28.994,20.01 28.994,20.01C28.994,20.01 29.733,20 30,20C30.332,20 30.999,20.001 30.999,20.001C30.999,20.001 31,19.221 31,19C31,15.691 28.309,13 25,13L24.995,11.005L24,11L23,11.001C23,11.001 23,11.674 23,12L23,13C19.691,13 17,15.691 17,19C17,22.928 20.154,24.039 23,24.777L23,33C20.794,33 19,31.206 19,29C19,28.753 18.997,27.99 18.997,27.99C18.997,27.99 18.305,28 18,28C17.717,28 17.002,28.006 17.002,28.006C17.002,28.006 17,28.731 17,29C17,32.309 19.691,35 23,35L23,36C23,36.26 23.004,36.999 23.004,36.999C23.004,36.999 23.707,37 24,37C24.334,37 24.992,37.002 24.992,37.002C24.992,37.002 25,36.218 25,36L25,35C28.309,35 31,32.309 31,29C31,25.072 27.846,23.961 25,23.223L25,15C27.206,15 29,16.794 29,19ZM29,29C29,31.206 27.206,33 25,33L25,25.296C27.505,25.989 29,26.762 29,29ZM23,22.704C20.495,22.011 19,21.238 19,19C19,16.794 20.794,15 23,15L23,22.704Z" style="fill:white;fill-rule:nonzero;"/>
    </g>
</svg>
